Coordinates
version=1
nRows=34
nColumns=38
inDegrees=no

Units are S.I. units (second, meters, Newtons, ...)
If the header above contains a line with 'inDegrees', this indicates whether rotational values are in degrees (yes) or radians (no).

endheader
time	pelvis_tilt	pelvis_list	pelvis_rotation	pelvis_tx	pelvis_ty	pelvis_tz	hip_flexion_r	hip_adduction_r	hip_rotation_r	knee_angle_r	ankle_angle_r	subtalar_angle_r	mtp_angle_r	hip_flexion_l	hip_adduction_l	hip_rotation_l	knee_angle_l	ankle_angle_l	subtalar_angle_l	mtp_angle_l	lumbar_extension	lumbar_bending	lumbar_rotation	arm_flex_r	arm_add_r	arm_rot_r	elbow_flex_r	pro_sup_r	wrist_flex_r	wrist_dev_r	arm_flex_l	arm_add_l	arm_rot_l	elbow_flex_l	pro_sup_l	wrist_flex_l	wrist_dev_l
40	0.0176043	1.32937	1.43562	0.772838	0.0634253	0.846969	0.864793	0.0647258	0.151043	1.2666	0.471582	0	0	0.761926	-0.118188	-0.0862869	1.17103	0.523599	0	0	-0.321398	-0.00947239	0.101512	0.286648	-0.215079	0.0579391	0.412095	1.41277	0	0	0.268801	-0.257286	0.253717	0.438437	1.41794	0	0
40.01	0.0132922	1.33198	1.43856	0.772666	0.0640789	0.851525	0.852642	0.0612282	0.150225	1.2484	0.464197	0	0	0.74802	-0.118716	-0.0938708	1.14947	0.523599	0	0	-0.317237	-0.0104846	0.102433	0.283515	-0.21648	0.0597513	0.415007	1.40375	0	0	0.264772	-0.256594	0.254382	0.441215	1.4097	0	0
40.02	0.0101925	1.33523	1.44019	0.772511	0.0648036	0.85623	0.839396	0.0578152	0.148893	1.22951	0.45679	0	0	0.732982	-0.119575	-0.10171	1.12737	0.523599	0	0	-0.313471	-0.0112196	0.103729	0.28045	-0.218024	0.0617468	0.417561	1.39473	0	0	0.26077	-0.255789	0.255409	0.443971	1.40108	0	0
40.03	0.00771803	1.33871	1.44136	0.772342	0.0655923	0.860988	0.825718	0.0540566	0.146648	1.21043	0.449339	0	0	0.717554	-0.12045	-0.109595	1.10505	0.523599	0	0	-0.309635	-0.0116907	0.104771	0.277513	-0.219451	0.0628289	0.419659	1.38948	0	0	0.256494	-0.254806	0.255047	0.446854	1.39444	0	0
40.04	0.00517591	1.34228	1.44233	0.772187	0.0663964	0.865782	0.811875	0.0502755	0.144325	1.19118	0.441794	0	0	0.7018	-0.121372	-0.117944	1.08233	0.523599	0	0	-0.305766	-0.0121666	0.105893	0.274789	-0.220762	0.0637032	0.421426	1.38487	0	0	0.25207	-0.253812	0.25471	0.449861	1.3874	0	0
40.05	0.0019572	1.34567	1.44364	0.772028	0.0671808	0.870568	0.798307	0.0463236	0.142092	1.17178	0.433961	0	0	0.685998	-0.122186	-0.126793	1.05912	0.523599	0	0	-0.301505	-0.012754	0.107412	0.271921	-0.221945	0.0647297	0.42282	1.38023	0	0	0.247785	-0.25269	0.254824	0.452336	1.38065	0	0
40.06	-0.00115024	1.34901	1.44473	0.771864	0.0679721	0.875344	0.784638	0.0424167	0.139674	1.15187	0.425705	0	0	0.670024	-0.122888	-0.135671	1.03552	0.523599	0	0	-0.297013	-0.0132402	0.109142	0.268991	-0.223128	0.0661064	0.424356	1.37599	0	0	0.243475	-0.251514	0.255225	0.454624	1.37348	0	0
40.07	-0.00406339	1.35234	1.44564	0.771706	0.0687649	0.880135	0.770731	0.0385743	0.136984	1.13144	0.417097	0	0	0.653784	-0.123434	-0.144659	1.01115	0.515199	0	0	-0.29244	-0.013596	0.110837	0.266159	-0.224333	0.0674626	0.425795	1.37303	0	0	0.239063	-0.25032	0.25572	0.457077	1.36588	0	0
40.08	-0.00784285	1.35583	1.44738	0.771532	0.0695897	0.884934	0.756483	0.0343682	0.134129	1.11063	0.408549	0	0	0.637111	-0.12362	-0.153981	0.986369	0.504157	0	0	-0.287853	-0.0140589	0.112487	0.263281	-0.225522	0.0687748	0.42701	1.3706	0	0	0.234683	-0.248905	0.255977	0.459467	1.35932	0	0
40.09	-0.0112592	1.35976	1.44863	0.771335	0.0704091	0.889781	0.741351	0.0303053	0.13126	1.08904	0.399997	0	0	0.619659	-0.123684	-0.163486	0.961041	0.492795	0	0	-0.283783	-0.0144013	0.114262	0.260616	-0.22688	0.0705986	0.428446	1.36776	0	0	0.230762	-0.247439	0.257057	0.461631	1.35343	0	0
40.1	-0.0136322	1.36361	1.44849	0.771158	0.0712268	0.894615	0.725903	0.026547	0.128202	1.06669	0.391527	0	0	0.602107	-0.123866	-0.1729	0.935462	0.481078	0	0	-0.279568	-0.0144299	0.116454	0.258005	-0.228258	0.072922	0.429554	1.36445	0	0	0.226826	-0.24581	0.258316	0.463592	1.34857	0	0
40.11	-0.0145686	1.36735	1.44709	0.770982	0.0720657	0.89941	0.710154	0.0230913	0.124912	1.04369	0.38305	0	0	0.58465	-0.123963	-0.181844	0.909622	0.468935	0	0	-0.275086	-0.0139244	0.118527	0.255266	-0.229541	0.0752043	0.430561	1.36088	0	0	0.222694	-0.244114	0.259362	0.465272	1.3451	0	0
40.12	-0.014707	1.37089	1.44503	0.770799	0.07292	0.904158	0.694682	0.0195438	0.120924	1.02072	0.374037	0	0	0.567334	-0.123908	-0.190638	0.883231	0.456558	0	0	-0.270234	-0.0131168	0.120435	0.252201	-0.230706	0.0768316	0.432001	1.357	0	0	0.218367	-0.242362	0.260237	0.467096	1.34225	0	0
40.13	-0.0141289	1.37441	1.44207	0.770628	0.0737908	0.908874	0.679175	0.0161755	0.1165	0.997706	0.364759	0	0	0.549814	-0.12408	-0.200144	0.856313	0.444066	0	0	-0.265259	-0.0121537	0.122487	0.249005	-0.231829	0.0777309	0.433982	1.35296	0	0	0.213792	-0.240523	0.261025	0.469433	1.33972	0	0
40.14	-0.0137107	1.37801	1.43903	0.770467	0.0746581	0.91356	0.663424	0.0128325	0.112235	0.974065	0.35548	0	0	0.531981	-0.124352	-0.210665	0.829142	0.431197	0	0	-0.260364	-0.0112392	0.124667	0.245886	-0.232768	0.0785388	0.435766	1.34908	0	0	0.209218	-0.238615	0.261466	0.471877	1.33721	0	0
40.15	-0.0127112	1.38136	1.43542	0.770316	0.0755295	0.918171	0.647661	0.00971964	0.107896	0.949914	0.346098	0	0	0.514439	-0.124362	-0.220687	0.801993	0.417958	0	0	-0.255077	-0.0101361	0.126735	0.242782	-0.233861	0.0816477	0.436665	1.34763	0	0	0.204397	-0.236708	0.261809	0.474406	1.3356	0	0
40.16	-0.0109889	1.38445	1.43122	0.770157	0.0763975	0.922701	0.631972	0.00668521	0.10306	0.925427	0.336369	0	0	0.497217	-0.124054	-0.230056	0.774727	0.40439	0	0	-0.249341	-0.00877042	0.128579	0.239395	-0.235068	0.0847599	0.438277	1.34525	0	0	0.199425	-0.235067	0.262907	0.477054	1.33518	0	0
40.17	-0.00851421	1.38745	1.42643	0.770004	0.0772675	0.927157	0.616161	0.00369666	0.0977413	0.900602	0.326475	0	0	0.480011	-0.12354	-0.239161	0.747199	0.390581	0	0	-0.243393	-0.00719853	0.130348	0.235811	-0.236004	0.0871745	0.439999	1.34116	0	0	0.194499	-0.233319	0.263969	0.479648	1.33462	0	0
40.18	-0.00541573	1.3902	1.42129	0.76984	0.0781298	0.931525	0.600389	0.000740853	0.0920815	0.87535	0.316553	0	0	0.463028	-0.122837	-0.248069	0.719421	0.376489	0	0	-0.237035	-0.00537956	0.131796	0.232073	-0.236736	0.0895021	0.441439	1.33632	0	0	0.189389	-0.231403	0.264583	0.482212	1.33339	0	0
40.19	-0.00221805	1.39293	1.41632	0.769659	0.0789797	0.935811	0.584468	-0.00229012	0.0861223	0.849745	0.306734	0	0	0.446087	-0.121882	-0.25701	0.691532	0.362092	0	0	-0.23073	-0.00347599	0.132876	0.228275	-0.237576	0.0925587	0.443204	1.33051	0	0	0.18423	-0.229691	0.265994	0.485404	1.33178	0	0
40.2	0.00231503	1.3954	1.41032	0.769473	0.0798333	0.939979	0.568694	-0.00517868	0.0794306	0.824006	0.29656	0	0	0.429419	-0.120882	-0.265638	0.663456	0.347437	0	0	-0.22404	-0.00117738	0.133627	0.22428	-0.238651	0.096579	0.445441	1.32368	0	0	0.179153	-0.228119	0.268009	0.488221	1.32939	0	0
40.21	0.00814898	1.39767	1.40334	0.769274	0.0806787	0.944041	0.552961	-0.00797612	0.0720151	0.797979	0.28613	0	0	0.413021	-0.11985	-0.274024	0.635355	0.332654	0	0	-0.217109	0.00147888	0.133916	0.219978	-0.240006	0.102535	0.448533	1.31242	0	0	0.174011	-0.226593	0.270383	0.490827	1.32481	0	0
40.22	0.0143729	1.3997	1.39619	0.769072	0.081539	0.947978	0.537236	-0.0107203	0.0642619	0.771666	0.275935	0	0	0.397023	-0.118807	-0.2825	0.607397	0.317678	0	0	-0.209985	0.00426812	0.134105	0.216005	-0.239696	0.0982477	0.449567	1.32141	0	0	0.169036	-0.224211	0.268618	0.492496	1.32915	0	0
40.23	0.0215768	1.4013	1.38833	0.768854	0.0823537	0.951738	0.521944	-0.0132121	0.0563187	0.745387	0.265998	0	0	0.381915	-0.117743	-0.290237	0.580174	0.302995	0	0	-0.202535	0.00735566	0.13403	0.212067	-0.239904	0.0968233	0.450847	1.32582	0	0	0.163982	-0.222083	0.268162	0.494765	1.33192	0	0
40.24	0.0307092	1.40275	1.37908	0.768612	0.0831816	0.955358	0.506456	-0.015494	0.0475068	0.718538	0.256165	0	0	0.367097	-0.116635	-0.296898	0.553077	0.288267	0	0	-0.194742	0.0108976	0.133498	0.20793	-0.240261	0.0960107	0.452203	1.32877	0	0	0.158928	-0.220146	0.26845	0.497186	1.33414	0	0
40.25	0.0409705	1.4038	1.36924	0.768337	0.0839784	0.958797	0.491231	-0.0175988	0.0383392	0.69137	0.24616	0	0	0.353067	-0.11539	-0.302282	0.526511	0.273757	0	0	-0.186567	0.0147384	0.132504	0.203795	-0.240688	0.0957348	0.453304	1.33084	0	0	0.154005	-0.218248	0.268916	0.49947	1.33582	0	0
40.26	0.0310635	1.40974	1.38541	0.767743	0.085772	0.961839	0.462814	-0.0323816	0.0154632	0.651177	0.243437	0	0	0.333353	-0.107279	-0.304788	0.49842	0.260723	0	0	-0.179983	0.0140964	0.124843	0.197002	-0.238992	0.0947053	0.455439	1.33345	0	0	0.146576	-0.220135	0.271682	0.505245	1.33629	0	0
40.27	0.042589	1.41047	1.37511	0.767448	0.0864879	0.964901	0.448597	-0.0340228	0.00489351	0.625863	0.233395	0	0	0.320398	-0.106072	-0.308931	0.473087	0.24665	0	0	-0.171897	0.0180808	0.123168	0.19276	-0.23947	0.0940462	0.457392	1.33514	0	0	0.142036	-0.218583	0.272629	0.50767	1.33606	0	0
40.28	0.0543507	1.41124	1.36503	0.76714	0.0872256	0.967811	0.434202	-0.0356743	-0.00612147	0.60047	0.223498	0	0	0.307609	-0.104739	-0.312688	0.448095	0.23256	0	0	-0.163528	0.0221495	0.121211	0.18826	-0.239863	0.093865	0.459165	1.33529	0	0	0.137633	-0.216974	0.27357	0.509945	1.33583	0	0
40.29	0.0662241	1.41186	1.35517	0.766828	0.0879415	0.97053	0.420061	-0.0370836	-0.0169269	0.57531	0.213735	0	0	0.29557	-0.103271	-0.315301	0.424182	0.218804	0	0	-0.155131	0.0261907	0.118931	0.183704	-0.240272	0.0941576	0.460814	1.33446	0	0	0.13334	-0.215512	0.274366	0.51242	1.3355	0	0
40.3	0.0787077	1.41247	1.34511	0.76651	0.0886677	0.973065	0.406093	-0.0382434	-0.0279636	0.550838	0.204201	0	0	0.283874	-0.101791	-0.316809	0.40103	0.205512	0	0	-0.146719	0.0302555	0.11624	0.179066	-0.240815	0.0947685	0.462435	1.33352	0	0	0.129128	-0.214409	0.27547	0.515	1.33512	0	0
40.31	0.117906	1.40859	1.30428	0.766316	0.0884804	0.975852	0.403634	-0.0271243	-0.0266506	0.538206	0.187566	0	0	0.277306	-0.107234	-0.318527	0.379859	0.190835	0	0	-0.137748	0.0406911	0.118684	0.177119	-0.24439	0.0962472	0.463042	1.33309	0	0	0.128088	-0.208728	0.274198	0.512705	1.33499	0	0
40.32	0.10437	1.41355	1.32527	0.765839	0.0900393	0.977575	0.37881	-0.0398984	-0.0503508	0.503528	0.186034	0	0	0.261655	-0.0986895	-0.317323	0.356756	0.180409	0	0	-0.130002	0.0384287	0.110112	0.170275	-0.242352	0.0962704	0.46494	1.33291	0	0	0.12179	-0.211926	0.276345	0.518527	1.33447	0	0
40.33	0.146383	1.40998	1.2821	0.765603	0.0898416	0.9801	0.375486	-0.0281894	-0.0478576	0.490376	0.170217	0	0	0.25529	-0.104533	-0.318217	0.337248	0.166751	0	0	-0.122148	0.0494009	0.112264	0.168923	-0.246144	0.0975967	0.465068	1.33142	0	0	0.121888	-0.205543	0.273832	0.514696	1.33462	0	0
